<?xml version="1.0" encoding="utf-8"?>
<!-- Generator: Adobe Illustrator 19.0.0, SVG Export Plug-In . SVG Version: 6.00 Build 0)  -->
<svg version="1.1" id="Layer_1" xmlns="http://www.w3.org/2000/svg" xmlns:xlink="http://www.w3.org/1999/xlink" x="0px" y="0px"
	 width="261.7px" height="185px" viewBox="25.6 -4 261.7 185" style="enable-background:new 25.6 -4 261.7 185;"
	 xml:space="preserve">
<style type="text/css">
	.st0{fill:#CDCDCD;}
	.st1{fill:#F5F5F5;}
	.st2{fill:#D3D3D3;}
	.st3{fill:#FE6760;}
	.st4{fill:#FFBD2E;}
	.st5{fill:#28C941;}
	.st6{fill:#BDC7E1;}
	.st7{fill:#FACCCE;}
	.st8{fill:#BF2026;}
	.st9{fill:#FFFFFF;}
	.st10{fill:#C4E0FF;}
	.st11{fill:#A1C0E3;}
	.st12{fill:#6CA2DF;}
	.st13{fill:#EDEDED;}
	.st14{fill:#DFDFDF;}
	.st15{fill:#F4C000;}
	.st16{fill:#72B338;}
	.st17{fill:#6AA436;}
	.st18{fill:#FFEFDA;}
	.st19{fill:#F3DEC1;}
	.st20{fill:#FF9000;}
	.st21{fill:#8FCCAF;}
	.st22{fill:#A8DC7B;}
	.st23{fill:#F0FDA3;}
	.st24{fill:#D9EBCA;}
</style>
<g>
	<path class="st0" d="M153.9,176.8c34.3,0,62,1.3,62,2.8c0,1.6-62,1.4-62,1.4s-62,0.1-62-1.4S119.6,176.8,153.9,176.8z"/>
	<g>
		<path class="st1" d="M101.3,13.9h106.2c1.2,0,2.1,0.9,2.1,2.1v152.4c0,1.2-0.9,2.1-2.1,2.1H101.3c-1.2,0-2.1-0.9-2.1-2.1V16
			C99.2,14.8,100.2,13.9,101.3,13.9z"/>
		<g>
			<path class="st2" d="M101.3,13.9h106.2c1.2,0,2.1,0.9,2.1,2.1v7.4H99.2V16C99.2,14.8,100.2,13.9,101.3,13.9z"/>
			<circle class="st3" cx="105" cy="18.6" r="1.6"/>
			<circle class="st4" cx="110.3" cy="18.6" r="1.6"/>
			<circle class="st5" cx="115.5" cy="18.6" r="1.6"/>
		</g>
		<g>
			<path class="st6" d="M109.7,83.2h41c1.2,0,2.1,0.9,2.1,2.1v21c0,1.2-0.9,2.1-2.1,2.1h-41c-1.2,0-2.1-0.9-2.1-2.1v-21
				C107.6,84.2,108.6,83.2,109.7,83.2z"/>
			<path class="st6" d="M158.1,83.2h41c1.2,0,2.1,0.9,2.1,2.1v21c0,1.2-0.9,2.1-2.1,2.1h-41c-1.2,0-2.1-0.9-2.1-2.1v-21
				C156,84.2,156.9,83.2,158.1,83.2z"/>
			<path class="st6" d="M108.4,110.6h43.7c0.4,0,0.7,0.3,0.7,0.7v1.7c0,0.4-0.3,0.7-0.7,0.7h-43.7c-0.4,0-0.7-0.3-0.7-0.7v-1.7
				C107.6,110.9,107.9,110.6,108.4,110.6z"/>
			<path class="st6" d="M108.4,115.8h43.7c0.4,0,0.7,0.3,0.7,0.7v1.7c0,0.4-0.3,0.7-0.7,0.7h-43.7c-0.4,0-0.7-0.3-0.7-0.7v-1.7
				C107.6,116.1,107.9,115.8,108.4,115.8z"/>
			<path class="st6" d="M156.7,110.6h43.7c0.4,0,0.7,0.3,0.7,0.7v1.7c0,0.4-0.3,0.7-0.7,0.7h-43.7c-0.4,0-0.7-0.3-0.7-0.7v-1.7
				C156,110.9,156.3,110.6,156.7,110.6z"/>
			<path class="st6" d="M156.7,115.8h43.7c0.4,0,0.7,0.3,0.7,0.7v1.7c0,0.4-0.3,0.7-0.7,0.7h-43.7c-0.4,0-0.7-0.3-0.7-0.7v-1.7
				C156,116.1,156.3,115.8,156.7,115.8z"/>
			<g>
				<path class="st7" d="M109.7,127.4h89.3c1.2,0,2.1,0.9,2.1,2.1V160c0,1.2-0.9,2.1-2.1,2.1h-89.3c-1.2,0-2.1-0.9-2.1-2.1v-30.5
					C107.6,128.3,108.6,127.4,109.7,127.4z"/>
				<path class="st8" d="M149.7,137.9h9.5c1.8,0,3.2,1.4,3.2,3.2v5.3c0,1.8-1.4,3.2-3.2,3.2h-9.5c-1.8,0-3.2-1.4-3.2-3.2v-5.3
					C146.5,139.3,147.9,137.9,149.7,137.9z"/>
				<path class="st9" d="M157,143.6l-4.2,2.6V141L157,143.6z"/>
			</g>
		</g>
	</g>
	<g>
		<path class="st10" d="M33,86.4h24.2c4.1,0,7.4,3.3,7.4,7.4v24.2c0,4.1-3.3,7.4-7.4,7.4H33c-4.1,0-7.4-3.3-7.4-7.4V93.8
			C25.6,89.7,28.9,86.4,33,86.4z"/>
		<path class="st11" d="M37.4,95h19.7c1.8,0,3.2,1.4,3.2,3.2v19.7c0,1.8-1.4,3.2-3.2,3.2H37.4c-1.8,0-3.2-1.4-3.2-3.2V98.2
			C34.3,96.5,35.7,95,37.4,95z"/>
		<path class="st9" d="M31.9,98h25.2v16.8c0,1.8-1.4,3.2-3.2,3.2H35.1c-1.8,0-3.2-1.4-3.2-3.2V98z"/>
		<path class="st10" d="M47.7,102.1h-6.3c-1.6,0-2.8,1.3-2.8,2.8v6.3c0,0.4,0.4,0.8,0.8,0.8c0.4,0,0.8-0.4,0.8-0.8v-6.3
			c0-0.6,0.5-1.2,1.2-1.2h6.3c0.6,0,1.2,0.5,1.2,1.2v6.3c0,0.6-0.5,1.2-1.2,1.2H43l2.5-4l0.1,0.3c0.1,0.4,0.4,0.7,0.8,0.7h0.1
			c0.4-0.1,0.7-0.5,0.7-0.9l-0.3-2.4c-0.1-0.4-0.5-0.7-0.9-0.7l-2.7,0.4c-0.4,0.1-0.7,0.5-0.7,0.9c0.1,0.4,0.5,0.7,0.9,0.7l0.7-0.1
			l-3.5,5.5c-0.2,0.2-0.2,0.5,0,0.8c0.1,0.3,0.4,0.4,0.7,0.4h6.3c1.6,0,2.8-1.3,2.8-2.8v-6.3C50.6,103.3,49.3,102.1,47.7,102.1z"/>
		<path class="st12" d="M35.1,92.7H54c1.8,0,3.2,1.4,3.2,3.2V98H31.9v-2.1C31.9,94.1,33.3,92.7,35.1,92.7z"/>
		<circle class="st9" cx="40.8" cy="95" r="1.1"/>
		<circle class="st9" cx="38" cy="95" r="1.1"/>
		<circle class="st9" cx="35.3" cy="95" r="1.1"/>
	</g>
	<g>
		<path class="st13" d="M50.9,30.7H74c4.1,0,7.4,3.3,7.4,7.4v23.1c0,4.1-3.3,7.4-7.4,7.4H50.9c-4.1,0-7.4-3.3-7.4-7.4V38.1
			C43.5,34,46.8,30.7,50.9,30.7z"/>
		<circle class="st14" cx="64.5" cy="51.7" r="9.5"/>
		<circle class="st15" cx="62.4" cy="49.6" r="9.5"/>
		<path class="st9" d="M61.4,55.9v-2.1h2.1v2.1H61.4z M61.4,43.3h2.1v8.4h-2.1V43.3z"/>
	</g>
	<g>
		<path class="st16" d="M234.8-4h23.1c4.1,0,7.4,3.3,7.4,7.4v23.1c0,4.1-3.3,7.4-7.4,7.4h-23.1c-4.1,0-7.4-3.3-7.4-7.4V3.4
			C227.4-0.7,230.7-4,234.8-4z"/>
		<path class="st17" d="M256.9,18.3c-4.6-3.4-9.2,3.4-13.9,0V10c4.6,3.4,9.2-3.4,13.9,0V18.3z M243.1,8.6c0,0.5-0.4,1.1-0.9,1.1
			s-0.9-0.4-0.9-1.1c0-0.5,0.4-1.1,0.9-1.1S243.1,8,243.1,8.6z M242.5,25V10.2c0-0.2-0.2-0.4-0.4-0.4c-0.2,0-0.4,0.2-0.4,0.4V25
			c0,0.2,0.2,0.4,0.4,0.4C242.3,25.4,242.5,25.2,242.5,25L242.5,25z"/>
		<path class="st9" d="M254.8,16.2c-4.6-3.4-9.2,3.4-13.9,0V7.9c4.6,3.4,9.2-3.4,13.9,0V16.2z M241,6.5c0,0.5-0.4,1.1-0.9,1.1
			s-0.9-0.4-0.9-1.1c0-0.5,0.4-1.1,0.9-1.1S241,5.9,241,6.5z M240.4,22.9V8.1c0-0.2-0.2-0.4-0.4-0.4c-0.2,0-0.4,0.2-0.4,0.4v14.8
			c0,0.2,0.2,0.4,0.4,0.4C240.2,23.3,240.4,23.1,240.4,22.9L240.4,22.9z"/>
	</g>
	<g>
		<path class="st18" d="M253.7,50.7h22.7c4.1,0,7.4,3.3,7.4,7.4v22.7c0,4.1-3.3,7.4-7.4,7.4h-22.7c-4.1,0-7.4-3.3-7.4-7.4V58
			C246.4,53.9,249.6,50.7,253.7,50.7z"/>
		<path class="st19" d="M275.5,73.9c-0.6-0.4-1.1-0.9-1.2-1.5c1.1-1.1,1.7-2.5,1.7-4c0-3.5-3.5-6.3-7.7-6.3s-7.7,2.8-7.7,6.3
			c0,3.5,3.5,6.3,7.7,6.3c1.6,0,2.9-0.4,4.2-1.1c1.1,0.6,2.2,0.6,2.9,0.5C275.6,74.3,275.7,74,275.5,73.9z M268.3,76.1
			c0.3,0,0.6,0,0.8,0c-0.8,2.1-3.3,3.7-6.1,3.7c-1.3,0-2.4-0.3-3.5-0.8c-0.9,0.5-1.9,0.5-2.4,0.4c-0.2,0-0.2-0.2-0.1-0.3
			c0.5-0.3,0.8-0.8,1.1-1.3c-0.8-0.9-1.4-2.1-1.4-3.3c0-1.8,1.2-3.5,2.8-4.4C260.5,73.5,264,76.1,268.3,76.1z"/>
		<path class="st20" d="M273.9,72.3c-0.6-0.4-1.1-0.9-1.2-1.5c1.1-1.1,1.7-2.5,1.7-4c0-3.5-3.5-6.3-7.7-6.3c-4.2,0-7.7,2.8-7.7,6.3
			c0,3.5,3.5,6.3,7.7,6.3c1.6,0,2.9-0.4,4.2-1.1c1.1,0.6,2.2,0.6,2.9,0.5C274,72.7,274.1,72.5,273.9,72.3z"/>
		<path class="st9" d="M266.8,74.5c0.3,0,0.6,0,0.8,0c-0.8,2.1-3.3,3.7-6.1,3.7c-1.3,0-2.4-0.3-3.5-0.8c-0.9,0.5-1.9,0.5-2.4,0.4
			c-0.2,0-0.2-0.2-0.1-0.3c0.5-0.3,0.8-0.8,1.1-1.3c-0.8-0.9-1.4-2.1-1.4-3.3c0-1.8,1.2-3.5,2.8-4.4
			C258.9,71.9,262.4,74.5,266.8,74.5z"/>
	</g>
	<g>
		<ellipse class="st21" cx="76.1" cy="151.6" rx="5.3" ry="5.3"/>
		<circle class="st21" cx="277.4" cy="3.9" r="3.7"/>
		<ellipse class="st22" cx="230.1" cy="68" rx="2.6" ry="2.6"/>
		<ellipse class="st21" cx="253.2" cy="42.8" rx="1.6" ry="1.6"/>
		<circle class="st22" cx="285.8" cy="21.8" r="1.6"/>
		<circle class="st22" cx="59.8" cy="139.5" r="1.6"/>
		<ellipse class="st21" cx="86.6" cy="104.3" rx="2.1" ry="2.1"/>
		<ellipse class="st23" cx="74.5" cy="82.7" rx="3.7" ry="3.7"/>
		<circle class="st23" cx="213.8" cy="-1.9" r="2.1"/>
	</g>
	<path class="st24" d="M109.7,31.7h89.3c1.2,0,2.1,0.9,2.1,2.1v38.9c0,1.2-0.9,2.1-2.1,2.1h-89.3c-1.2,0-2.1-0.9-2.1-2.1V33.8
		C107.6,32.7,108.6,31.7,109.7,31.7z"/>
	<path class="st16" d="M167.2,63.3h-6h-8.7H142c-1.4,0-2.2-1.4-1.5-2.4l9.7-15.5c0.6-1.1,2.4-1.1,3,0l4.1,6.5l1.5-2.4
		c0.5-0.8,1.8-0.8,2.3,0l7.4,11.8C168.9,62.2,168.3,63.3,167.2,63.3z M164.9,46.4c-1.3,0-2.2-0.9-2.2-2.1c0-1.2,0.9-2.1,2.2-2.1
		s2.2,0.9,2.2,2.1C167.1,45.4,166.2,46.4,164.9,46.4z"/>
</g>
</svg>
