<?xml version="1.0" encoding="utf-8"?>
<!-- Generator: Adobe Illustrator 19.0.0, SVG Export Plug-In . SVG Version: 6.00 Build 0)  -->
<svg version="1.1" id="Layer_1" xmlns="http://www.w3.org/2000/svg" xmlns:xlink="http://www.w3.org/1999/xlink" x="0px" y="0px"
	 width="165px" height="185px" viewBox="-71 -68 165 185" style="enable-background:new -71 -68 165 185;" xml:space="preserve">
<style type="text/css">
	.st0{fill:#EFEFEF;}
	.st1{fill:#B87900;}
	.st2{fill:#FDB72C;}
	.st3{fill:#FDBF44;}
	.st4{enable-background:new    ;}
</style>
<ellipse class="st0" cx="13.8" cy="111.5" rx="70.2" ry="5.5"/>
<path class="st1" d="M-35.5-12.7c-6.5,0-11.8-5.3-11.8-11.8s5.3-11.8,11.8-11.8s11.8,5.3,11.8,11.8S-29-12.7-35.5-12.7z"/>
<g>
	<path class="st2" d="M72.8,78.6c-5,6.1-11.6,11.3-19.2,15.2l2.5,16.5c0.3,1.7-0.9,3-2.6,3H29.5c-1.2,0-2.3-0.9-2.5-2.1l-1.7-9.9
		c-1.6,0.1-3.2,0.2-4.8,0.2c-4.3,0-8.4-0.4-12.5-1l-1.8,10.7c-0.2,1.2-1.3,2.1-2.5,2.1h-23.9c-1.7,0-2.9-1.4-2.6-3l3.1-20.8
		c-13.9-9.5-22.7-23.8-22.7-39.8c0-8.4,2.5-16.3,6.8-23.4c-1.3-0.7-2.6-1.3-4-1.8c-0.1,1.6-0.5,3.2-1,4.8c-1.4,4.2-5.3,6.9-9.9,6.9
		c-0.9,0-1.7-0.1-2.6-0.3c-2.6-0.6-4.9-2.3-6.2-4.8c-1.4-2.6-1.6-5.6-0.6-8.3c1.5-3.8,5-6.2,9.8-6.7c0.4,0,0.8-0.1,1.3-0.1
		c-1.4-1.8-3.5-3.7-6.7-5.5c-1.6-0.9-2.2-3-1.3-4.6c0.9-1.6,3-2.2,4.6-1.3c6,3.4,9.9,7.7,11.6,12.5c3.1,0.8,6.2,2.1,9,3.6l3.4-3.9
		C-16.4,5.5,1-1.9,20.6-1.9c5.5,0,10.8,0.6,15.8,1.7c16-19.1,31.4-8.4,36.8-5.8c1.1,0.7,1.2,1.5,0.3,2.9C68.2,4.7,65.9,14,65.9,14
		c7.5,6.4,12.9,14.3,15.6,23.2C88.9,39.3,94,40,94,57C94,79.4,83.8,73.4,72.8,78.6z M-47.8,23c-0.5,0-0.9,0-1.4,0.1
		c-3.3,0.3-3.9,1.9-4.1,2.4c-0.3,0.8-0.2,1.7,0.2,2.6c0.4,0.7,1,1.2,1.6,1.4c1.7,0.4,3.9-0.1,4.6-2.1c0.3-0.9,0.8-2.4,0.8-4.3
		C-46.7,23-47.3,23-47.8,23z M32.7,8.1C32.7,8.1,32.7,8.1,32.7,8.1C32.7,8.1,32.7,8.1,32.7,8.1c-9.7-2-20-2-29.5,0c0,0,0,0,0,0
		c0,0,0,0,0,0c-1.4,0.3-2.4,1.5-2.4,3c0,1.7,1.4,3.1,3.1,3.1c0.2,0,0.4,0,0.6-0.1v0c8.8-1.9,18.2-1.9,27,0v0c0.2,0,0.4,0.1,0.6,0.1
		c1.7,0,3.1-1.4,3.1-3.1C35.2,9.7,34.1,8.4,32.7,8.1z M58.9,25.7c-3.7,0-6.8,3-6.8,6.8c0,3.7,3,6.8,6.8,6.8c3.7,0,6.8-3,6.8-6.8
		C65.6,28.7,62.6,25.7,58.9,25.7z"/>
</g>
<path class="st3" d="M-36.5-13.7c-6.5,0-11.8-5.3-11.8-11.8s5.3-11.8,11.8-11.8s11.8,5.3,11.8,11.8S-30-13.7-36.5-13.7z"/>
<g class="st4">
	<path class="st1" d="M-32.8-23.6c0,0.8-0.3,1.4-0.8,1.9c-0.6,0.5-1.3,0.8-2.4,0.8v1.5h-1v-1.5c-1.2,0-2.2-0.2-3.1-0.6v-1.9
		c0.4,0.2,0.9,0.4,1.5,0.6c0.6,0.2,1.1,0.3,1.6,0.3v-2.3l-0.5-0.2c-1-0.4-1.7-0.8-2.1-1.2c-0.4-0.4-0.6-1-0.6-1.7
		c0-0.7,0.3-1.3,0.8-1.7c0.6-0.5,1.3-0.7,2.3-0.8v-1.1h1v1.1c1.1,0,2.1,0.3,3,0.7l-0.7,1.7c-0.8-0.3-1.5-0.5-2.3-0.6v2.2
		c1,0.4,1.6,0.7,2,1c0.4,0.3,0.7,0.6,0.9,0.9C-32.9-24.4-32.8-24-32.8-23.6z M-38-27.9c0,0.2,0.1,0.4,0.2,0.5
		c0.1,0.1,0.4,0.3,0.7,0.4v-1.7C-37.7-28.6-38-28.3-38-27.9z M-35-23.5c0-0.2-0.1-0.4-0.2-0.5c-0.2-0.1-0.4-0.3-0.7-0.4v1.8
		C-35.4-22.7-35-23-35-23.5z"/>
</g>
<path class="st1" d="M14.3-38.1c-7.9,0-14.3-6.4-14.3-14.3s6.4-14.3,14.3-14.3s14.3,6.4,14.3,14.3S22.2-38.1,14.3-38.1z"/>
<path class="st3" d="M13-39.3c-7.9,0-14.3-6.4-14.3-14.3S5.1-68,13-68s14.3,6.4,14.3,14.3S21-39.3,13-39.3z"/>
<g class="st4">
	<path class="st1" d="M17.5-51.3c0,0.9-0.3,1.7-1,2.3c-0.7,0.6-1.6,0.9-2.9,1v1.8h-1.2V-48c-1.4,0-2.7-0.3-3.8-0.8v-2.4
		c0.5,0.3,1.1,0.5,1.9,0.7c0.7,0.2,1.4,0.3,1.9,0.3v-2.8l-0.6-0.2c-1.2-0.5-2-1-2.5-1.5c-0.5-0.5-0.7-1.2-0.7-2c0-0.9,0.3-1.6,1-2.1
		c0.7-0.6,1.6-0.9,2.8-1v-1.4h1.2v1.3c1.4,0.1,2.6,0.3,3.7,0.8l-0.8,2.1c-0.9-0.4-1.9-0.6-2.9-0.7v2.6c1.2,0.4,2,0.8,2.5,1.2
		c0.5,0.3,0.8,0.7,1.1,1.1C17.4-52.3,17.5-51.9,17.5-51.3z M11.2-56.6c0,0.3,0.1,0.5,0.3,0.6c0.2,0.2,0.5,0.3,0.9,0.5v-2.1
		C11.6-57.4,11.2-57.1,11.2-56.6z M14.8-51.2c0-0.2-0.1-0.5-0.3-0.6c-0.2-0.2-0.5-0.4-0.9-0.5v2.2C14.4-50.3,14.8-50.6,14.8-51.2z"
		/>
</g>
<path class="st1" d="M62.4-31.4c-5.1,0-9.2-4.1-9.2-9.2s4.1-9.2,9.2-9.2s9.2,4.1,9.2,9.2S67.5-31.4,62.4-31.4z"/>
<path class="st3" d="M61.6-32.1c-5.1,0-9.2-4.1-9.2-9.2s4.1-9.2,9.2-9.2s9.2,4.1,9.2,9.2S66.7-32.1,61.6-32.1z"/>
<g class="st4">
	<path class="st1" d="M64.5-39.9c0,0.6-0.2,1.1-0.7,1.5c-0.4,0.4-1.1,0.6-1.8,0.7v1.2h-0.8v-1.2c-0.9,0-1.8-0.2-2.5-0.5v-1.5
		c0.3,0.2,0.7,0.3,1.2,0.4c0.5,0.1,0.9,0.2,1.3,0.2v-1.8L60.8-41c-0.8-0.3-1.3-0.6-1.6-1c-0.3-0.3-0.5-0.8-0.5-1.3
		c0-0.6,0.2-1,0.7-1.4c0.4-0.4,1-0.6,1.8-0.7v-0.9H62v0.9c0.9,0,1.7,0.2,2.4,0.5l-0.5,1.3c-0.6-0.2-1.2-0.4-1.8-0.4v1.7
		c0.7,0.3,1.3,0.5,1.6,0.7c0.3,0.2,0.5,0.4,0.7,0.7C64.4-40.5,64.5-40.2,64.5-39.9z M60.4-43.3c0,0.2,0.1,0.3,0.2,0.4
		c0.1,0.1,0.3,0.2,0.6,0.3v-1.3C60.7-43.8,60.4-43.6,60.4-43.3z M62.7-39.8c0-0.2-0.1-0.3-0.2-0.4c-0.1-0.1-0.3-0.2-0.6-0.3v1.4
		C62.5-39.2,62.7-39.4,62.7-39.8z"/>
</g>
</svg>
