<?xml version="1.0" encoding="utf-8"?>
<!-- Generator: Adobe Illustrator 19.0.0, SVG Export Plug-In . SVG Version: 6.00 Build 0)  -->
<svg version="1.1" id="Layer_1" xmlns="http://www.w3.org/2000/svg" xmlns:xlink="http://www.w3.org/1999/xlink" x="0px" y="0px"
	 width="227.9px" height="185px" viewBox="-47 -71 227.9 185" style="enable-background:new -47 -71 227.9 185;"
	 xml:space="preserve">
<style type="text/css">
	.st0{fill:#E1E3E9;}
	.st1{fill:#B1C0D9;}
	.st2{fill:#47AC57;}
	.st3{fill:#FFFFFF;}
	.st4{font-family:'OpenSans-Bold';}
	.st5{font-size:51.5979px;}
	.st6{fill:#ECCA2A;}
</style>
<g>
	<path class="st0" d="M-8.3-45.1h146.2c4.8,0,8.6,3.9,8.6,8.6V79.6H-16.9V-36.5C-16.9-41.3-13-45.1-8.3-45.1z"/>
	<path class="st0" d="M-34.1,83.9h197.8c4.8,0,8.6,3.9,8.6,8.6c0,4.8-3.8,8.6-8.6,8.6H-34.1c-4.7,0-8.6-3.9-8.6-8.6
		C-42.7,87.7-38.8,83.9-34.1,83.9z"/>
	<rect x="-4" y="-32.2" class="st1" width="137.6" height="111.8"/>
	<circle class="st2" cx="140" cy="25.8" r="40.8"/>
	<text transform="matrix(1 0 0 1 120.4315 45.1654)" class="st3 st4 st5">B</text>
	<circle class="st6" cx="-6.2" cy="-17.2" r="40.8"/>
	<text transform="matrix(1 0 0 1 -26.2287 2.1675)" class="st3 st4 st5">A</text>
	<path class="st3" d="M132.8-71l13.8,4.7L9.7,114L-4,109.3L132.8-71z"/>
</g>
</svg>
