<?xml version="1.0" encoding="utf-8"?>
<!-- Generator: Adobe Illustrator 19.0.0, SVG Export Plug-In . SVG Version: 6.00 Build 0)  -->
<svg version="1.1" id="Layer_1" xmlns="http://www.w3.org/2000/svg" xmlns:xlink="http://www.w3.org/1999/xlink" x="0px" y="0px"
	 width="194.7px" height="185px" viewBox="4 0 194.7 185" style="enable-background:new 4 0 194.7 185;" xml:space="preserve">
<style type="text/css">
	.st0{fill:#4196F6;}
</style>
<g>
	<path class="st0" d="M166.4,0H197c1,0,1.7,0.7,1.7,1.7v181.6c0,1-0.7,1.7-1.7,1.7h-30.7c-1,0-1.7-0.7-1.7-1.7V1.7
		C164.7,0.7,165.4,0,166.4,0z"/>
	<path class="st0" d="M112.8,29.2h30.7c1,0,1.7,0.7,1.7,1.7v152.4c0,1-0.7,1.7-1.7,1.7h-30.7c-1,0-1.7-0.7-1.7-1.7V30.9
		C111.1,29.9,111.8,29.2,112.8,29.2z"/>
	<path class="st0" d="M59.3,58.4H90c1,0,1.7,0.7,1.7,1.7v123.2c0,1-0.7,1.7-1.7,1.7H59.3c-1,0-1.7-0.7-1.7-1.7V60.1
		C57.6,59.2,58.3,58.4,59.3,58.4z"/>
	<path class="st0" d="M5.7,87.6h30.7c1,0,1.7,0.7,1.7,1.7v94c0,1-0.7,1.7-1.7,1.7H5.7c-1,0-1.7-0.7-1.7-1.7v-94
		C4,88.4,4.7,87.6,5.7,87.6z"/>
</g>
</svg>
