<?xml version="1.0" encoding="utf-8"?>
<!-- Generator: Adobe Illustrator 19.0.0, SVG Export Plug-In . SVG Version: 6.00 Build 0)  -->
<svg version="1.1" id="Layer_1" xmlns="http://www.w3.org/2000/svg" xmlns:xlink="http://www.w3.org/1999/xlink" x="0px" y="0px"
	 viewBox="-269.7 408.6 29.6 25.5" style="enable-background:new -269.7 408.6 29.6 25.5;" xml:space="preserve">
<style type="text/css">
	.st0{fill:#9BD2A9;}
	.st1{fill:none;stroke:#000000;stroke-width:2.5;stroke-miterlimit:10;}
	.st2{fill:#FFFFFF;stroke:#000000;stroke-width:2.5;stroke-miterlimit:10;}
	.st3{stroke:#000000;stroke-width:1.5;stroke-miterlimit:10;}
</style>
<g>
	<g id="XMLID_1410_">
		<path id="XMLID_13_" class="st0" d="M-247.1,431c-0.4,1-1.6,1.9-2.7,1.9h-10.2c-1.1,0-2.3-0.8-2.7-1.9l-3.8-10.5
			c-0.4-1,0.2-1.9,1.3-1.9h20.6c1.1,0,1.7,0.8,1.3,1.9L-247.1,431z"/>
		<path id="XMLID_12_" class="st1" d="M-247.1,431c-0.4,1-1.6,1.9-2.7,1.9h-10.2c-1.1,0-2.3-0.8-2.7-1.9l-3.8-10.5
			c-0.4-1,0.2-1.9,1.3-1.9h20.6c1.1,0,1.7,0.8,1.3,1.9L-247.1,431z"/>
	</g>
	<path id="XMLID_1409_" class="st2" d="M-244.1,421.8h-21.5c-1.6,0-2.8-1.3-2.8-2.8l0,0c0-1.6,1.3-2.8,2.8-2.8h21.5
		c1.6,0,2.8,1.3,2.8,2.8l0,0C-241.4,420.5-242.6,421.8-244.1,421.8z"/>
	<path id="XMLID_1345_" class="st3" d="M-257.1,409.4L-257.1,409.4c0.3,0.1,0.4,0.3,0.3,0.6l-4.5,9.1c-0.1,0.2-0.4,0.3-0.7,0.2l0,0
		c-0.3-0.1-0.4-0.3-0.3-0.6l4.5-9.1C-257.6,409.4-257.4,409.3-257.1,409.4z"/>
	<path id="XMLID_1343_" class="st3" d="M-253.4,409.4L-253.4,409.4c-0.3,0.1-0.4,0.3-0.3,0.6l4.5,9.1c0.1,0.2,0.4,0.3,0.7,0.2l0,0
		c0.3-0.1,0.4-0.3,0.3-0.6l-4.5-9.1C-252.6,409.4-253,409.3-253.4,409.4z"/>
</g>
</svg>
