<svg width="499.99999999999994" height="499.99999999999994" xmlns="http://www.w3.org/2000/svg">

 <g>
  <title>background</title>
  <rect fill="none" id="canvas_background" height="402" width="582" y="-1" x="-1"/>
 </g>
 <g>
  <title>Layer 1</title>
  <path stroke-width="0" id="svg_1" fill-rule="evenodd" fill="#ffffff" d="m306.39,154.09c19.628,4.543 35.244,21.259 39.787,39.523c1.551,8.54 8.998,14.989 17.904,14.989c9.991,0 18.168,-8.175 18.168,-18.17c0,-13.083 -10.991,-32.98 -25.985,-47.881c-14.719,-14.537 -32.252,-24.802 -46.695,-24.802c-9.991,0 -18.172,8.45 -18.172,18.446c-0.001,8.899 6.45,16.351 14.993,17.895zm-249.761,238.222c-14.09,14.08 -14.09,36.979 0,51.059c14.08,14.092 36.981,14.092 50.965,0l104.392,-104.303c24.347,15.181 53.062,23.991 83.953,23.991c87.857,0 158.995,-71.142 158.995,-158.999c0,-87.854 -71.138,-158.995 -158.995,-158.995c-87.856,0 -158.995,71.141 -158.995,158.995c0,30.802 8.819,59.606 23.992,83.953l-104.307,104.299zm125.742,-188.252c0,-62.687 50.875,-113.568 113.568,-113.568s113.569,50.881 113.569,113.568c0,62.694 -50.876,113.569 -113.569,113.569s-113.568,-50.875 -113.568,-113.569z" clip-rule="evenodd"/>
 </g>
</svg>