<?xml version="1.0" encoding="utf-8"?>
<!-- Generator: Adobe Illustrator 19.0.0, SVG Export Plug-In . SVG Version: 6.00 Build 0)  -->
<svg version="1.1" id="Layer_1" xmlns="http://www.w3.org/2000/svg" xmlns:xlink="http://www.w3.org/1999/xlink" x="0px" y="0px"
	 width="111px" height="111px" viewBox="-242 365.9 111 111" style="enable-background:new -242 365.9 111 111;"
	 xml:space="preserve">
<style type="text/css">
	.st0{display:none;}
	.st1{display:inline;}
	.st2{fill:#273859;}
	.st3{fill:#BFBFBA;}
</style>
<g id="XMLID_1040_" class="st0">
	<g id="XMLID_122_" class="st1">
		<path id="XMLID_129_" d="M-392.8,828.5c-0.3,0.2-0.5,0.4-0.9,0.7c-0.3,0.2-0.7,0.5-1,0.6c-0.4,0.2-0.8,0.3-1.2,0.4
			c-0.4,0.1-0.9,0.1-1.3,0c-0.3-0.1-0.7-0.2-0.9-0.4c-0.3-0.2-0.6-0.4-0.8-0.7c-0.3-0.3-0.4-0.6-0.5-1.1s-0.1-0.9,0-1.2
			c0.1-0.7,0.3-1.5,0.6-2.4c0.3-0.8,0.6-1.7,0.9-2.5c0.6-1.3,1.4-2.5,2.4-3.5s2.2-1.7,3.5-2c0.5-0.1,0.9-0.1,1.4-0.1
			c0.5,0.1,0.9,0.2,1.3,0.5c0.4,0.3,0.7,0.6,0.9,1c0.2,0.4,0.2,0.8,0.1,1.3c-0.1,0.2-0.1,0.3-0.2,0.5c-0.1,0.2-0.2,0.3-0.3,0.4
			c-0.1,0.1-0.2,0.2-0.3,0.2s-0.2-0.1-0.3-0.2c0-0.1-0.1-0.2-0.1-0.4s-0.1-0.3-0.2-0.5c-0.1-0.2-0.2-0.3-0.4-0.4
			c-0.2-0.1-0.4-0.2-0.6-0.2c-0.5,0-1.2,0.3-1.9,1s-1.4,1.5-2,2.4c-0.6,0.9-1.2,1.8-1.6,2.7c-0.5,0.9-0.7,1.6-0.9,2
			c-0.2,0.7-0.2,1.1,0,1.2c0.2,0,0.5-0.1,0.9-0.5c0.4-0.4,0.9-0.9,1.5-1.5c0.5-0.6,1.1-1.3,1.6-1.9c0.5-0.6,0.9-1.2,1.3-1.6
			c0.4-0.5,0.6-0.7,0.6-0.8c0.4-0.3,0.7-0.4,1.1-0.4c0.4,0,0.7,0.2,1,0.4c0.3,0.2,0.5,0.5,0.6,0.9c0.1,0.4,0.1,0.7-0.1,1.1
			c-0.2,0.5-0.5,1-0.8,1.6c-0.3,0.6-0.5,1.2-0.6,1.7c-0.1,0.7,0,1.2,0.3,1.5c0.3,0.2,0.7,0.2,1.4,0c0.5-0.2,1.1-0.6,1.7-1.2
			c0.6-0.6,1.2-1.2,1.8-1.9c0.6-0.7,1.1-1.3,1.7-1.9c0.5-0.6,0.9-1,1.3-1.3c0.1-0.1,0.2-0.2,0.3-0.3s0.2-0.1,0.3-0.1
			c0.1,0.1,0.2,0.1,0.2,0.2c0,0.1,0,0.2,0,0.3c-0.4,0.9-0.8,1.8-1.3,2.7s-1.1,1.7-1.7,2.5c-0.6,0.8-1.4,1.4-2.2,2
			c-0.8,0.6-1.6,1.1-2.6,1.4c-0.6,0.2-1.1,0.3-1.6,0.2s-0.9-0.2-1.2-0.5c-0.4-0.3-0.7-0.6-0.9-1C-392.6,829.4-392.8,829-392.8,828.5
			z"/>
		<path id="XMLID_585_" d="M-377.9,826.9c0.2,0.2,0.5,0.1,1-0.2c0.5-0.3,1-0.6,1.6-1.1c0.6-0.4,1.1-0.9,1.7-1.4
			c0.6-0.5,1.1-0.8,1.6-1.1c0.2-0.1,0.5-0.3,0.8-0.4c0.4-0.2,0.8-0.3,1.2-0.4c0.4-0.1,0.8-0.1,1.1,0c0.3,0.1,0.5,0.3,0.6,0.6
			c0.1,0.5,0.1,1,0.1,1.6c0,0.5,0,1.1,0.1,1.6v0.4c0.6-0.4,1.2-0.8,1.8-1.2c0.6-0.4,1.2-0.8,1.8-1.1c0.7-0.4,1.3-0.7,1.9-1.1
			c0.6-0.4,1.3-0.7,1.9-0.9h0.1l0,0c-0.1,0.1-0.1,0.1-0.1,0.1l-0.1,0.1c-0.5,0.6-1,1.1-1.5,1.6s-1,1-1.5,1.4
			c-0.6,0.6-1.2,1.1-1.7,1.6c-0.5,0.4-1.1,1-1.7,1.5c-0.5,0.5-0.8,0.9-1,1.4c-0.2,0.5-0.4,1-0.5,1.6c-0.6,1.9-1.2,3.9-1.8,6
			c-0.6,2.1-1.4,4.2-2.2,6.2c-0.9,2-1.9,3.8-3.1,5.5c-1.2,1.7-2.7,3-4.4,3.9c-0.4,0.1-0.9,0-1.3,0c-0.4-0.1-0.8-0.3-1.2-0.6
			c-0.6-0.5-1-1.1-1.2-1.9c-0.2-0.7-0.3-1.5-0.2-2.3c0-0.8,0.2-1.6,0.4-2.3c0.2-0.8,0.5-1.5,0.7-2c0.7-1.6,1.5-3.2,2.5-4.6
			c0.9-1.5,1.9-2.8,3-4.1s2.2-2.5,3.4-3.7s2.4-2.3,3.7-3.4c0.1-0.1,0.2-0.4,0.3-0.8c0.1-0.4,0.2-0.8,0.2-1.1c0-0.4,0-0.6,0-0.9
			c-0.1-0.2-0.2-0.2-0.4,0c-0.6,0.5-1.2,0.9-1.8,1.4s-1.3,0.9-2,1.2c-0.7,0.3-1.4,0.6-2.1,0.8c-0.7,0.2-1.4,0.3-2.2,0.2
			c-0.7-0.1-1.2-0.4-1.6-0.7c-0.4-0.4-0.6-0.8-0.8-1.2c-0.2-0.5-0.2-1-0.2-1.6c0-0.6,0.1-1.1,0.2-1.6c0.3-1.1,0.7-2,1.3-2.8
			c0.6-0.8,1.5-1.4,2.5-1.7c1.6-0.5,3.2-0.5,4.7,0.2c0.3,0.1,0.6,0.3,0.8,0.4c0.2,0.1,0.4,0.4,0.5,0.6c0.3,0.6,0.1,0.9-0.7,0.8
			c-0.3-0.1-0.6-0.1-1-0.1c-0.3,0-0.6,0-0.9,0c-0.9,0-1.6,0.2-2.3,0.7c-0.6,0.4-1.1,1-1.5,1.6c-0.4,0.6-0.6,1.2-0.7,1.8
			C-378,826-378,826.5-377.9,826.9z M-372.4,832.5c-0.9,1-1.8,2-2.7,3c-0.9,1-1.8,2-2.5,3c-0.8,1-1.5,2.1-2.2,3.3
			c-0.7,1.1-1.2,2.3-1.6,3.6c-0.3,0.8-0.4,1.6-0.5,2.4s0,1.5,0.2,2.3c0.6-0.3,1.1-0.8,1.7-1.5c0.6-0.7,1.1-1.5,1.6-2.4
			c0.5-0.9,1-1.7,1.4-2.5s0.7-1.5,1-2c0.2-0.4,0.5-1,0.9-1.9c0.4-0.9,0.8-1.8,1.2-2.8c0.4-1,0.8-1.9,1.1-2.7
			C-372.5,833.5-372.4,832.9-372.4,832.5z"/>
	</g>
	<g id="XMLID_683_" class="st1">
		<path id="XMLID_633_" d="M-398.6,797c0,0.7,0,1.8-0.1,3.1c0,0.7-0.1,1.4-0.2,2.2c-0.1,0.8-0.2,1.7-0.3,2.6c-0.2,1.9-0.6,3.9-1,6.2
			c-0.5,2.3-1.1,4.7-2,7.2c-0.5,1.3-0.9,2.6-1.6,3.9l-0.2,0.5l-0.2,0.5c-0.2,0.3-0.3,0.6-0.5,1c-0.3,0.6-0.7,1.3-1.1,1.9
			c-1.5,2.5-3.3,5-5.4,7.3c-1,1.1-2.1,2.3-3.3,3.3c-1.2,1.1-2.4,2-3.8,2.9c-1.4,0.9-2.8,1.7-4.6,2.1c-0.9,0.2-1.8,0.3-2.8,0.1
			c-1-0.2-1.9-0.6-2.7-1.2c-0.2-0.1-0.4-0.3-0.5-0.5l-0.1-0.3l-0.1-0.1l-0.1-0.1l0,0l-0.1-0.1c0,0-0.1-0.2-0.2-0.3
			c-0.1-0.1-0.1-0.3-0.2-0.4c-0.1-0.2-0.2-0.5-0.3-0.8c-0.3-1.1-0.1-2.1,0.2-2.9s0.7-1.6,1.1-2.2c0.4-0.7,0.9-1.3,1.4-1.8
			c1-1.1,2.1-2.1,3.3-2.9c1.1-0.8,2.3-1.6,3.5-2.2c2.3-1.3,4.7-2.3,6.8-3c2.2-0.7,4.2-1.2,6.1-1.6c1.8-0.3,3.4-0.5,4.8-0.6
			c1.3-0.1,2.8-0.1,3.5-0.1c0.9,0.1-1.8,0.7-4.8,1.6c-2.9,0.9-9.9,2.1-16.3,6.7c-5.1,3.7-8,7.2-6.7,9c1.1,1.6,9-3.2,12.9-7.5
			s5.8-7.6,6.1-8.2c0.2-0.3,0.3-0.6,0.5-0.9l0.2-0.4l0.2-0.5c0.6-1.1,1.1-2.3,1.6-3.5c1-2.3,1.8-4.6,2.5-6.7
			c0.7-2.1,1.3-4.1,1.8-5.9c0.2-0.9,0.5-1.7,0.7-2.5s0.4-1.5,0.6-2.1c0.3-1.3,0.6-2.3,0.7-3C-399.1,796.2-398.6,796.3-398.6,797z"/>
		<path id="XMLID_689_" d="M-415.7,805.6c0.6-0.3,1.2-0.6,1.9-1c0.3-0.2,0.7-0.3,1.1-0.5c0.4-0.2,0.8-0.3,1.2-0.5
			c0.8-0.3,1.7-0.7,2.6-1c0.5-0.2,0.9-0.3,1.4-0.5s1-0.3,1.4-0.5c1-0.3,2-0.6,3-0.8c0.5-0.1,1-0.2,1.5-0.3c0.5-0.1,1-0.2,1.5-0.3
			c1-0.2,2-0.3,3-0.5c0.5-0.1,1-0.1,1.4-0.2c0.5,0,0.9-0.1,1.4-0.1c0.4,0,0.9,0,1.3-0.1c0.4,0,0.8,0,1.2,0c0.8,0,1.5,0,2.1,0
			c0.6,0.1,1.2,0.1,1.6,0.2c0.5,0,1.3,0.2,1.1,0.3s-0.6,0.2-1,0.3s-1,0.2-1.6,0.4c-0.6,0.2-1.3,0.3-2,0.5s-1.5,0.4-2.4,0.6
			c-0.4,0.1-0.9,0.2-1.3,0.3c-0.4,0.1-0.9,0.2-1.4,0.3s-0.9,0.2-1.4,0.3s-0.9,0.2-1.4,0.3s-1,0.2-1.5,0.3s-1,0.2-1.5,0.4
			c-1,0.2-2,0.5-2.9,0.7c-1,0.2-1.9,0.5-2.8,0.7s-1.8,0.4-2.7,0.6c-0.9,0.2-1.7,0.4-2.4,0.5c-0.8,0.2-1.4,0.3-2.1,0.4
			C-416,806.7-416.3,805.9-415.7,805.6z"/>
	</g>
</g>
<g id="XMLID_38_">
	<g id="XMLID_2_">
		<path id="XMLID_402_" class="st2" d="M-151.5,395.7c0,0-0.1,0.3-0.3,0.7c-0.1,0.2-0.3,0.5-0.5,0.8s-0.5,0.6-0.9,0.9
			c-0.2,0.2-0.4,0.3-0.6,0.4l-0.1,0.1l-0.2,0.1c-0.1,0.1-0.3,0.1-0.4,0.2c-0.5,0.2-1.2,0.3-1.8,0.3s-1.2-0.1-1.8-0.2
			s-1.1-0.3-1.7-0.5c-0.5-0.2-1.1-0.4-1.6-0.6s-1-0.4-1.5-0.6c-1-0.4-1.9-0.8-2.6-1.1c-0.4-0.2-0.7-0.3-1.1-0.4
			c-0.3-0.1-0.6-0.2-0.8-0.3c-0.2-0.1-0.4-0.1-0.5-0.2c-0.1,0-0.2-0.1-0.2-0.1s0.1,0,0.2,0c0.1,0,0.3,0,0.6-0.1c0.5,0,1.2,0,2.1,0.1
			c0.9,0.1,1.8,0.3,2.9,0.5c0.5,0.1,1,0.3,1.6,0.4c0.5,0.1,1.1,0.3,1.6,0.4s1,0.3,1.5,0.4s1,0.2,1.4,0.2c0.2,0,0.4,0,0.6,0
			s0.4,0,0.6-0.1c0.1,0,0.2,0,0.3-0.1h0.1l0.2-0.1c0.2-0.1,0.4-0.1,0.5-0.2c0.4-0.2,0.7-0.3,1-0.5c0.3-0.1,0.6-0.3,0.8-0.4
			C-151.8,395.9-151.5,395.7-151.5,395.7z"/>
		<g id="XMLID_1392_">
			<g id="XMLID_1393_">
				<path id="XMLID_1468_" class="st3" d="M-204.5,415.2c0,0,0.7-3.8,4.9-8.3c2.2-2.3,3.7-3.6,6.9-4.6c1.5-0.5,2.5-1.3,2.7-2.1
					c0.5-1.9-0.7-4.9-1.5-7.1c-1.3-3.2,1.5,3.4,7.1,6c6,2.7,12.7,2,14.3-1.1c2.3-4.4-0.7-6.9-0.2-10c0.6-4.2,6.3-5.4,6.3-5.4
					s1.2,4.1,7.5,5.1c2.8,0.5,5.7,2.3,5,6.2c-0.2,0.8,0.4-7.4,0.4-7.4s1.1-3.7,0-5c-1.1-1.4-6.9-3.9-9.6-5c-2.8-1.1-11.2-7.6-16.5-8
					s-14.4,0.7-14.4,0.7l-4.7,1.4c0,0-1.7,1.9-2,4.7c-0.2,2.6,0.7,5.2,0.6,5.1c-4.6-4.1-3.1-11-3.3-11.9s-0.2-1.1-0.2-1.1
					s-3.4,5.3-3.9,9s-0.7,5.3-2.3,7.8s-0.9,2.5-4.1,4.4c-5,3-11.3,3.4-11.3,3.4s4.2,2.4,9.2,8.8
					C-211.2,403.8-208.2,411.3-204.5,415.2z"/>
				<g id="XMLID_1394_">
					<path id="XMLID_1467_" class="st2" d="M-193.6,381.4c0-0.3,0.3-0.4,0.5-0.8s0.6-1.1,1.2-0.8c0.5,0.3,1,1.1,0.5,1.6
						C-192,381.9-193.5,382.6-193.6,381.4z"/>
					<path id="XMLID_1466_" class="st2" d="M-164.4,390.7c0,0-0.3,0.5,0.2,0.8c0.5,0.2,1.2,0.1,1.4-0.1c0.1-0.3,0.2-0.8,0-1.1
						c-0.2-0.3-0.3-0.7-0.7-0.6C-163.9,389.7-164.2,390.2-164.4,390.7z"/>
					<path id="XMLID_1465_" class="st2" d="M-159.9,388.4c0,0-0.3,0.4,0.1,0.7c0.4,0.3,1,0.3,1.2,0c0.1-0.2,0.3-0.7,0.1-0.9
						c-0.1-0.2-0.2-0.7-0.5-0.6C-159.3,387.6-159.6,388-159.9,388.4z"/>
					<path id="XMLID_1464_" class="st2" d="M-195.7,377.3c0,0,0.1,0.3,0,0.7c-0.1,0.4-0.2,1.3,0.2,1.5s1.4,0.3,1.8-0.1
						c0.4-0.4,0.1-1.1,0-2.1s0-2-0.8-1.7C-195.3,375.9-195.8,376.5-195.7,377.3z"/>
					<path id="XMLID_1461_" class="st2" d="M-204.3,388.3c-0.5-0.4-1.1-1.2-1.6-2.1c-0.3-0.5-0.5-1.1-0.7-1.7s-0.3-1.3-0.4-2
						c-0.1-0.7-0.1-1.5,0.1-2.2c0.1-0.4,0.1-0.7,0.2-1.1c0-0.2,0-0.3,0.1-0.5l0.1-0.5c0.1-0.4,0.2-0.7,0.3-1.1
						c0.1-0.3,0.2-0.7,0.3-1c0.2-0.7,0.5-1.3,0.7-2c1-2.5,3.5-5.2,3.5-5.2s-1.4,2.9-2.3,7.6c-0.9,4.4-0.6,5.2-0.6,5.8
						c0.1,0.6,0.2,1.2,0.2,1.7c0.1,0.5,0.2,1.1,0.3,1.6c0.2,1,0.4,1.8,0.6,2.4C-203.6,388.6-203.8,388.8-204.3,388.3z"/>
					<path id="XMLID_1457_" class="st2" d="M-167.9,382c-4.9,0.6-2.4-3-4-2.4c-3.6,1.4-1.1-0.2,0.5-0.7c2.1-0.7,3.3-0.6,4.4,0.3
						C-165.3,380.6-166.5,381.9-167.9,382z"/>
					<path id="XMLID_1454_" class="st2" d="M-197.5,381c-0.4-0.2-1-0.5-1.6-1c-0.3-0.2-0.6-0.5-0.9-0.9c-0.2-0.2-0.3-0.4-0.4-0.5
						c-0.1-0.2-0.3-0.4-0.4-0.6c-0.3-0.4-0.5-0.9-0.7-1.4c-0.1-0.2-0.2-0.5-0.3-0.7c-0.1-0.3-0.2-0.5-0.2-0.8
						c-0.1-0.5-0.2-1-0.3-1.5s-0.1-1-0.1-1.5c0-1,0.2-1.9,0.4-2.6c0.1-0.4,0.3-0.7,0.4-1c0.1-0.3,0.3-0.5,0.4-0.7
						c0.2-0.4,0.4-0.6,0.4-0.6s0,0.3,0,0.7c0,0.2,0,0.5,0.1,0.8c0,0.3,0.1,0.6,0.1,1c0.1,0.7,0.2,1.5,0.3,2.4
						c0.1,0.4,0.1,0.9,0.2,1.3s0.2,0.9,0.3,1.3l0.2,0.7c0.1,0.2,0.1,0.4,0.2,0.7c0.1,0.4,0.3,0.8,0.4,1.2c0.2,0.4,0.3,0.8,0.5,1.1
						c0.2,0.4,0.3,0.7,0.5,1C-197.4,380.5-197,381.2-197.5,381z"/>
					<path id="XMLID_1453_" class="st2" d="M-200.8,383c-1.3,0.6-3.1,3.3-1.1,6.2c1.7,2.5,0.5,6.3,1.5,6.5c1.4,0.2,1.1-2.9,2.4-5
						c2.2-3.5-0.6-2.5-1.1-3.8C-199.4,386.2-199.5,382.3-200.8,383z"/>
					<path id="XMLID_1452_" class="st2" d="M-189.7,418.8c1.6-0.2,1.4-0.7,2.6-1.5c0.6-0.5,2.7-2.9,0.8-2.6s-5,1.1-5.5,2.4
						C-192.2,417.9-191.3,419-189.7,418.8z"/>
					<path id="XMLID_1451_" class="st2" d="M-179.3,396.7c0,0-0.2-0.6,0.3-1.6s0.6-1.7,1.5-1.6s1.2,1.1,0.8,1.8
						c-0.4,0.7-1,1.4-1.3,1.7C-178.2,397.3-179.1,397.6-179.3,396.7z"/>
					<path id="XMLID_1450_" class="st2" d="M-172.9,392.4c0,0,0.4-0.4,0.6-0.6c0.2-0.2,0.4-1-0.5-1c-0.9-0.1-1.7-0.3-2.1,0
						c-0.4,0.3-0.6,1.5,0.3,1.8C-173.7,392.9-173.4,392.7-172.9,392.4z"/>
					<path id="XMLID_1449_" class="st2" d="M-184.8,394.5c0,0-0.2-0.7,0.1-1.1s0.6-0.6,1.3-1.6c0.7-0.9,0.9-1.2,1.4-1.1
						c0.5,0.2,0.9,0.4,0.8,1.3c-0.1,0.9-0.2,1.6-0.8,2.3C-182.8,395.2-184.3,395.9-184.8,394.5z"/>
					<path id="XMLID_1448_" class="st2" d="M-182.7,386.5c0.2,0.3,0.9,0.2,1.1,0.4c0.2,0.1,0.2,0.5,0.4,0.8s0.7,0.5,1.1,0.1
						c0.4-0.4,0.7-1.4,0.4-2.2c-0.4-0.8-1.3-1.8-2.1-1.5C-182.6,384.4-183.6,385.2-182.7,386.5z"/>
					<path id="XMLID_1447_" class="st2" d="M-206.2,395.6c0,0,0.2-0.3,0.5-0.3s0.8,0.1,0.9,0.4c0.1,0.3,1,1.3-0.2,1.6
						c-0.6,0.1-1.6-0.1-1.9-0.4c-0.3-0.2-0.7-0.6-0.5-0.9C-207.2,395.7-206.6,395.9-206.2,395.6z"/>
					<path id="XMLID_1446_" class="st2" d="M-172.3,386.4c0-0.3,0-0.5-0.1-0.7c-0.1-0.3-0.2-0.4-0.5-0.7c-0.3-0.2-0.6-0.3-0.7,0
						c-0.1,0.2,0,0.3-0.2,0.6c-0.2,0.3-0.2,0.6,0,0.9s0.4,0.5,0.7,0.7C-172.8,387.3-172.4,387.3-172.3,386.4z"/>
					<path id="XMLID_1445_" class="st2" d="M-180.5,397.4c0,0-0.4-0.2-0.5-0.5c-0.1-0.2-0.3-0.6-0.6-0.5s-0.3,0-0.5,0.1
						c-0.1,0.1-0.1,0.6-0.1,0.9c0.2,0.8,0.9,1.6,1.5,1.2C-179.9,398.2-180.2,397.5-180.5,397.4z"/>
					<path id="XMLID_1444_" class="st2" d="M-205.7,402.9c0,0-0.2-0.6-0.1-0.9c0.1-0.3,0.3-0.9-0.1-1.1c-0.4-0.2-0.3-0.3-0.6-0.3
						c-0.2,0-0.7,0.5-0.9,0.9c-0.6,1-0.5,2.5,0.5,2.6C-205.9,404.2-205.5,403.2-205.7,402.9z"/>
					<path id="XMLID_1443_" class="st2" d="M-168.6,391.2c-0.2-0.1-0.1-0.4-0.2-0.7c-0.1-0.3-0.4-0.9,0-1.1s1.1-0.1,1.2,0.5
						C-167.6,390.4-167.8,391.7-168.6,391.2z"/>
					<path id="XMLID_1442_" class="st2" d="M-175.9,398.7c0-0.1,0.2-0.2,0.4-0.4c0.2-0.2,0.4-0.6,0.7-0.4s0.5,0.7,0.1,0.9
						C-175,399.1-175.9,399.4-175.9,398.7z"/>
					<path id="XMLID_1441_" class="st2" d="M-159.8,393.2c0.1-0.1,0.3-0.1,0.5-0.1c0.2-0.1,0.7-0.2,0.8,0.1c0.1,0.3,0,0.8-0.4,0.8
						C-159.3,394.1-160.2,393.8-159.8,393.2z"/>
					<path id="XMLID_1440_" class="st2" d="M-167.4,388.3c-0.2-0.2-0.1-0.4,0-0.7c0.1-0.3-0.1-0.5,0-0.7c0-0.2,0.1-0.4,0.5-0.3
						s0.3,0.4,0.6,0.6c0.2,0.2,0.6,0.7,0.4,1C-166.1,388.5-166.7,389-167.4,388.3z"/>
					<path id="XMLID_1439_" class="st2" d="M-162.3,387.5c0,0-0.2,0.4,0.1,0.6c0.4,0.2,0.9,0.1,1-0.1s0.2-0.6,0-0.8
						c-0.1-0.2-0.3-0.6-0.5-0.5C-161.9,386.7-162.1,387.1-162.3,387.5z"/>
					<path id="XMLID_1438_" class="st2" d="M-194.9,416.9c0,0-0.2,0.4,0.1,0.6s0.9,0.1,1-0.1s0.2-0.6,0-0.8
						c-0.1-0.2-0.3-0.6-0.5-0.5C-194.5,416.1-194.7,416.5-194.9,416.9z"/>
					<path id="XMLID_1437_" class="st2" d="M-196.6,408.6c0,0-0.4,0.7,0.2,0.9c0.6,0.3,1.5,0.2,1.6-0.2c0.2-0.3,0.2-1,0-1.3
						s-0.4-0.9-0.8-0.8C-195.9,407.4-196.3,408-196.6,408.6z"/>
					<path id="XMLID_1419_" class="st2" d="M-177.2,384.8c0,0,0.1,0.2,0,0.4c-0.1,0.2-0.1,0.8,0.1,0.9c0.2,0.1,0.9,0.2,1.1-0.1
						c0.2-0.2,0.1-0.7,0-1.3c-0.1-0.6,0-1.2-0.5-1C-176.9,384-177.2,384.3-177.2,384.8z"/>
					<path id="XMLID_1418_" class="st2" d="M-189.9,392.9c0,0-0.3-0.8-0.4-1.5c-0.1-0.7-0.2-1.1,0-1.3c0.2-0.2,0.5-0.3,0.4-0.7
						c-0.1-0.4-0.7-1.3-0.3-1.8s1.1-0.9,1.5-0.4s0.9,1.2,0.9,1.9c0,0.7-0.3,2.1-0.6,3.1C-188.8,393.1-189.3,394.5-189.9,392.9z"/>
					<path id="XMLID_1417_" class="st2" d="M-188.1,382.8c0,0,0.3,0.5,0.6,0.8c0.3,0.2,0.8,0.8,1.1,0.7c0.3,0,0.7-0.3,0.5-0.8
						c-0.2-0.4-0.5-1.1-1-1.1c-0.4,0-0.5-0.5-0.8-0.4C-187.9,382.2-188.3,382.5-188.1,382.8z"/>
					<path id="XMLID_1416_" class="st2" d="M-189.1,379.6c0,0-0.3-0.6-0.5-0.7s-0.5-0.6-0.4-1.2s0.4-1.2,0.9-0.7s0.4,1.2,0.6,1.3
						s0.4,0.6,0.3,1C-188.1,379.8-188.6,380.3-189.1,379.6z"/>
					<path id="XMLID_1415_" class="st2" d="M-178.4,389.8c0.2-0.2-0.1-0.3,0.5-0.4s1.1,0,0.9,0.3c-0.2,0.3,0.3,0.8-0.5,0.9
						C-178.4,390.7-178.8,390.3-178.4,389.8z"/>
					<path id="XMLID_1414_" class="st2" d="M-174.8,394.2c0.2-0.3-0.1-0.4,0.7-0.5s1.5,0,1.2,0.4c-0.2,0.4,0.4,1.1-0.7,1.2
						C-174.8,395.3-175.3,394.9-174.8,394.2z"/>
					<path id="XMLID_1413_" class="st2" d="M-192.5,410.7c1.1,0.5,3.7,0,5.3-2c1.6-2.1,2.3-3.3,1.9-4.3c-0.5-1.1-2.2-1.2-4.3-0.8
						c-2.3,0.5-0.6,2.7-1.2,3.8C-191.1,408-193.6,410.2-192.5,410.7z"/>
					<path id="XMLID_1412_" class="st2" d="M-186.4,411.8c0,0-0.3,0.6,0.4,0.7s1.7-0.2,2.1-1.2c0.4-1,1.3-0.8,1.7-1.1
						c0.4-0.3,1.6-1.9,0.7-2.1c-0.9-0.2-2.2-0.6-2.9,0.7C-184.9,410.2-185.7,410.3-186.4,411.8z"/>
					<path id="XMLID_1411_" class="st2" d="M-198.8,397.6c0.5-0.5,1.1-1,1.4-1c0.8,0.1,0.7,0.6,1.8,0.7c1.2,0.1,1.7-1,1.9-0.2
						c0.3,0.8,1.2,1.7,0,2.6c-1.3,0.9-2,1.9-2.7,1.1s-0.3-1.3-0.9-1.1c-0.6,0.2-0.7,1.1-1.8,1.3c-1.2,0.1-1.6-0.1-1.7-0.7
						C-200.9,399.7-199.1,398-198.8,397.6z"/>
					<path id="XMLID_1410_" class="st2" d="M-176.7,381.5c0,0-0.3,0.3-0.9,0.7c-0.6,0.4-2,0.4-2.1-0.1s0.7-1,1.1-1
						c0.5,0,1.3-0.2,1.6,0C-176.6,381.2-176.6,381.4-176.7,381.5z"/>
					<path id="XMLID_1409_" class="st2" d="M-183.9,380.4c0,0,0,0.5,1.1,0.6s2.3,0,2.3-0.4s-0.8-0.5-1.8-0.8
						C-183.3,379.5-184.4,379.7-183.9,380.4z"/>
					<path id="XMLID_1408_" class="st2" d="M-178.6,379.1c0,0-1.3,0.5-2.1-0.6s-0.7-2.1-0.1-2.3c0.6-0.2,1.3,0,1.7,1
						S-178.1,378.3-178.6,379.1z"/>
					<path id="XMLID_1407_" class="st2" d="M-166.1,378.9c-0.5-0.5-0.8-1-1.6-1.1c-0.9-0.1-1-0.7-0.5-0.8s1.3-0.5,2.3,0.5
						C-164.9,378.6-165.5,379.4-166.1,378.9z"/>
					<path id="XMLID_1406_" class="st2" d="M-175.3,376.5c0.4-0.9-0.4-1.5-0.8-1.7c-0.4-0.2-1.1,0.2-1,0.6
						C-177,375.8-175.5,377-175.3,376.5z"/>
					<path id="XMLID_81_" class="st2" d="M-187.4,422.7c-0.7,0.1-1.5,0.2-2.5,0.2s-2.1,0-3.3-0.2s-2.5-0.5-3.8-1s-2.7-1.2-4-2
						s-2.6-1.8-3.7-3c-1.2-1.1-2.2-2.4-3.2-3.7c-0.2-0.3-0.5-0.7-0.7-1s-0.5-0.7-0.7-1c-0.2-0.4-0.4-0.7-0.6-1.1
						c-0.2-0.3-0.4-0.7-0.6-1c-0.4-0.7-0.7-1.4-1.1-2c-0.3-0.7-0.7-1.3-1.1-1.9c-0.7-1.3-1.5-2.5-2.2-3.6s-1.5-2.1-2.2-3
						c-0.4-0.5-0.7-0.9-1.1-1.3c-0.4-0.4-0.7-0.8-1-1.1c-0.3-0.3-0.6-0.7-0.9-1c-0.3-0.3-0.6-0.6-0.8-0.8c-0.5-0.5-0.3-0.7,0.3-0.4
						c0.6,0.4,1.3,0.8,2.1,1.5c0.4,0.3,0.8,0.6,1.2,1s0.8,0.8,1.3,1.2c0.4,0.4,0.9,0.9,1.3,1.4c0.4,0.5,0.9,1,1.3,1.5
						c0.9,1.1,1.7,2.3,2.6,3.5c0.2,0.3,0.4,0.6,0.6,1c0.2,0.3,0.4,0.6,0.6,1c0.4,0.7,0.8,1.3,1.2,2c0.2,0.3,0.4,0.7,0.6,1
						c0.2,0.3,0.4,0.6,0.6,1c0.2,0.3,0.4,0.6,0.6,1c0.2,0.3,0.4,0.6,0.7,0.9c0.9,1.2,1.9,2.4,2.9,3.5s2.2,2,3.3,2.9
						c1.1,0.8,2.3,1.5,3.5,2.1s2.3,1,3.4,1.3c2.2,0.6,4.2,0.8,5.5,0.9c0,0,0.4,0,0.4,0.2C-187.1,422.7-187.4,422.7-187.4,422.7z"/>
					<path id="XMLID_82_" class="st2" d="M-182,414.4c0.2-0.3,1.1-1.9,1.7-2.8c0.6-0.9,1.2-1.8,2-2.6c0.4-0.4,0.7-0.8,1.1-1.1
						c0.4-0.3,0.9-0.7,1.3-1c0.9-0.6,1.8-1.2,2.7-1.7c1-0.5,2-0.8,3-1.1c1-0.2,2.1-0.4,3.2-0.4c0.5,0,1.1,0,1.6,0l1.6,0.1
						c2.2,0.1,4.4,0.3,6.6,0.5c0.2,0,0.6,0.1,1,0c0.4,0,0.7-0.1,1-0.2c0.7-0.2,1.3-0.6,1.8-1.2l0.2-0.2l0.1-0.2
						c0.1-0.1,0.2-0.2,0.3-0.4c0.2-0.2,0.3-0.5,0.5-0.7c0.3-0.5,0.6-1,0.9-1.5s0.5-1,0.8-1.6c0.2-0.5,0.4-1.1,0.6-1.7
						c0.1-0.3,0.1-0.5,0.2-0.8c0.1-0.3,0.1-0.6,0.2-0.9c0.1-0.6,0.2-1.2,0.2-1.8c0.1-1.2,0-2.4-0.2-3.5c0-0.3-0.1-0.6-0.1-0.9
						c-0.1-0.3-0.1-0.6-0.2-0.9c-0.1-0.4-0.2-0.8-0.4-1.2c0.2-0.4,0.4-0.9,0.6-1.3c0.1-0.3,0.2-0.6,0.2-1v-0.1v-0.1l0,0V384v-0.2
						c0-0.2,0-0.4,0-0.6c-0.1-1.4-0.6-2.7-1.5-3.8c-0.9-1.2-2.2-1.7-3.3-2.1c-1.1-0.5-2.1-0.9-3.2-1.3c-1.1-0.4-2.1-0.9-3.1-1.3
						c-0.5-0.2-1-0.5-1.5-0.7s-0.9-0.5-1.4-0.8c-1-0.6-2-1.2-3-1.8s-2-1.1-3.1-1.6s-2.1-1-3.3-1.4c-1.1-0.4-2.2-0.8-3.4-1
						c-1.2-0.3-2.4-0.4-3.6-0.5c-0.6,0-1.2,0-1.8,0c-0.3,0-0.6,0-0.9,0.1l-0.8,0.2c-1.1,0.1-2.3,0.3-3.4,0.4
						c-1.1,0.2-2.3,0.3-3.4,0.5c-1.1,0.2-2.3,0.4-3.4,0.7c-1,0.2-2.1,0.4-3.1,0.7c-0.1,0-0.1-0.1-0.2-0.1c-0.1-0.1-0.3-0.2-0.4-0.3
						c-0.3-0.2-0.6-0.5-0.8-0.7c-0.3-0.3-0.5-0.5-0.8-0.8c-0.1-0.1-0.2-0.3-0.4-0.4c-0.1-0.2-0.3-0.4-0.5-0.6s-0.4-0.4-0.9-0.5
						c-0.2-0.1-0.5-0.1-0.7,0s-0.4,0.1-0.5,0.2c-0.3,0.2-0.4,0.4-0.6,0.6c-0.1,0.1-0.1,0.2-0.2,0.3l-0.2,0.3
						c-0.4,0.7-0.8,1.5-1.1,2.2c-0.7,1.5-1.3,3.1-1.7,4.7c-0.2,0.8-0.4,1.6-0.6,2.4c-0.1,0.4-0.1,0.8-0.2,1.2l-0.2,1.2
						c-0.1,0.8-0.3,1.6-0.5,2.3c-0.2,0.8-0.5,1.5-0.8,2.2c-0.7,1.4-1.6,2.7-2.9,3.7c-1.2,1-2.9,2.1-4.5,2.6c-9,2.4-4.7,2.1-1.5,1.4
						c3.4-0.8,5.5-1.7,7.2-2.9c2.3-1.7,3.3-3.5,3.3-3.5s0.2-2.5,0.4-3.3c0.3-0.8,0-1.5,0.2-2.3l0.2-1.2c0.1-0.4,0.2-0.8,0.2-1.2
						c0.2-0.8,0.4-1.5,0.7-2.3c0.5-1.5,1.1-3,1.8-4.4c0.4-0.7,0.7-1.4,1.1-2.1l0.4-0.2c0-0.1,0.1-0.1,0.1-0.2
						c0.1-0.1,0.2-0.2,0.2-0.2l0.1,0.1c0.1,0.1,0.2,0.2,0.3,0.4c0.3,0.1,0.4,0.3,0.5,0.4c0.3,0.3,0.5,0.7,0.9,1
						c0.3,0.3,0.6,0.6,1,0.9c0.2,0.1,0.4,0.3,0.6,0.4c0.1,0.1,0.2,0.1,0.3,0.2s0.2,0.1,0.4,0.2c0.1,0.1,0.3,0.1,0.4,0l0,0
						c1.1-0.2,2.2-0.5,3.3-0.7s2.2-0.4,3.3-0.5c1.1-0.2,2.2-0.3,3.4-0.5c1.2-0.1,2.3-0.2,3.4-0.3l0.8-0.1c0.3,0,0.5,0,0.8,0
						c0.5,0,1.1,0,1.6,0c1.1,0.1,2.1,0.3,3.2,0.5c2.1,0.5,4.2,1.3,6.2,2.3c1,0.5,2,1,3,1.6s1.9,1.1,2.9,1.8c0.5,0.3,1.1,0.6,1.6,0.9
						s1.1,0.5,1.6,0.7c1.1,0.5,2.1,0.9,3.2,1.3c1.1,0.4,2.1,0.9,3.1,1.3c0.5,0.2,1,0.5,1.4,0.7l0.3,0.2c0.1,0.1,0.2,0.1,0.3,0.2
						c0.2,0.1,0.3,0.3,0.5,0.5c0.6,0.7,0.9,1.6,1,2.5c0,0.1,0,0.2,0,0.3v0.2v0.1c0,0.2-0.1,0.4-0.2,0.7c-0.1,0.4-0.4,1-0.6,1.4l0,0
						c-0.1,0.3-0.2,0.6-0.1,0.9c0.2,0.5,0.3,1,0.5,1.5c0.1,0.3,0.1,0.5,0.2,0.7c0.1,0.2,0.1,0.5,0.1,0.8c0.2,1.1,0.3,2.1,0.2,3.1
						c0,0.5-0.1,1-0.1,1.5c0,0.3-0.1,0.5-0.1,0.8c0,0.2-0.1,0.5-0.2,0.8c-0.1,0.4-0.3,0.9-0.5,1.4s-0.4,1-0.7,1.4
						c-0.2,0.5-0.5,0.9-0.8,1.4c-0.1,0.2-0.3,0.4-0.4,0.7c-0.1,0.1-0.1,0.2-0.2,0.3l-0.1,0.2l-0.1,0.1c-0.3,0.3-0.6,0.5-1,0.7
						c-0.2,0.1-0.4,0.1-0.6,0.1s-0.4,0-0.7,0c-2.2-0.2-4.5-0.3-6.7-0.3h-1.7c-0.6,0-1.1,0-1.7,0.1c-0.9,0.1-1.8,0.2-2.8,0.4
						c-1.4,0.2-5,0.8-8.3,0.5c-3-0.3-6.3-1.6-8.1-2.4c-0.3-0.1-0.5,0.2-0.3,0.4c1.1,1,3,2.4,5.2,3.4c3.4,1.4,1,6,1,6
						s-0.2,0.3-0.3,0.6c-0.5,0.9-1,1.8-1.4,2.7C-182.1,414-183.2,416.3-182,414.4z"/>
					<path id="XMLID_1395_" class="st2" d="M-161.4,383c0.5,0.2,1.1,0.5,1.7,0.7c0.6,0.3,1.3,0.5,2,0.7c0.4,0.1,0.7,0.2,1,0.3
						c0.3,0.1,0.7,0.2,1,0.2c0.3,0.1,0.6,0.1,1,0.1c0.3,0,0.6,0.1,0.8,0.1c0.3,0,0.5,0,0.7,0s0.4,0,0.5,0c0.3,0,0.5,0,0.5,0v2.3
						c0,0-0.2,0-0.6-0.1c-0.2,0-0.4-0.1-0.6-0.1c-0.2-0.1-0.5-0.1-0.8-0.2s-0.6-0.2-0.9-0.3c-0.3-0.1-0.7-0.2-1-0.4
						c-0.3-0.1-0.7-0.3-1-0.4c-0.4-0.1-0.7-0.3-1-0.5c-0.7-0.4-1.3-0.7-1.9-1.1c-0.6-0.4-1.1-0.8-1.6-1.1
						C-162.5,382.6-162.5,382.5-161.4,383z"/>
				</g>
			</g>
		</g>
	</g>
	<g id="XMLID_3_">
		<path id="XMLID_4_" class="st2" d="M-194.9,438.2c-1.1,1.4-2.3,2.7-3.6,3.8c-1.3,1.1-2.6,2.3-3.8,3.5c-0.1,0.2-0.3,0.3-0.4,0.5
			c-0.1,0.2-0.2,0.4-0.2,0.6c-0.4,4-1.1,7.9-2.2,11.7c-1,3.8-2.5,7.5-4.4,11c-0.6,1.1-1.3,2.2-2,3.2c-0.8,1-1.6,1.9-2.6,2.6
			c-0.9,0.6-1.7,1-2.6,1.3c-0.9,0.3-1.8,0.4-2.8,0.3c-0.7-0.1-1.3-0.4-2-0.8c-0.6-0.4-1.1-0.9-1.4-1.5c-0.7-1.3-0.9-2.8-0.7-4.4
			s0.7-3.3,1.4-4.9c0.8-1.7,1.7-3.4,2.8-5c1.1-1.7,2.3-3.2,3.5-4.7s2.3-2.8,3.4-3.9c1.1-1.1,1.9-2,2.5-2.6s1.2-1.2,1.7-1.8
			c0.6-0.6,1.1-1.2,1.6-1.8c0.2-0.3,0.4-0.8,0.4-1.7c0.1-0.8,0.1-1.7,0.2-2.7c0-1,0-1.9,0-2.8s0-1.5,0-2c0.2-0.5,0.5-0.7,0.9-0.8
			c0.4-0.1,0.9,0.1,1.4,0.3c0.5,0.3,0.9,0.6,1.3,1.1s0.6,1,0.7,1.5c0,0.4,0,0.7,0,0.9c0,0.2-0.1,0.4-0.1,0.6
			c-0.1,0.2-0.1,0.4-0.2,0.6c-0.1,0.2-0.1,0.5-0.1,0.8c0.3-0.2,0.5-0.3,0.7-0.5s0.4-0.3,0.6-0.4c0.8-0.5,1.5-1,2.3-1.5
			s1.6-1,2.3-1.5c0.3-0.1,0.6-0.3,0.9-0.4c0.3-0.1,0.6-0.1,0.8-0.1s0.3,0.2,0.3,0.4C-194.3,437.3-194.5,437.7-194.9,438.2z
			 M-209,451.3c0,0.1,0,0.1-0.1,0.1c-1.1,1.4-2.1,2.8-3.3,4.2c-1.1,1.4-2.2,2.7-3.2,4.1s-2,2.9-2.8,4.4c-0.9,1.5-1.5,3.1-2.1,4.8
			c-0.3,0.8-0.4,1.5-0.3,2.1c0.1,0.5,0.3,0.9,0.6,1.2c0.3,0.2,0.7,0.3,1.2,0.1s1.1-0.5,1.7-1.2c1.4-1.3,2.6-2.7,3.4-4.3
			c0.9-1.6,1.6-3.3,2.2-5.1c0.6-1.8,1.1-3.5,1.4-5.3C-209.8,454.6-209.5,452.9-209,451.3z M-203.3,433.6c-0.1,0.1-0.3,0.2-0.4,0.2
			c-0.2,0-0.3-0.1-0.3-0.3c-0.3-0.5-0.6-1.1-0.8-1.5c-0.2-0.5-0.3-0.9-0.3-1.4c0.1-0.5,0.2-0.9,0.5-1.3s0.7-0.7,1.1-0.9
			c0.5-0.2,1.1-0.2,1.6,0.1c0.5,0.3,0.8,0.7,0.9,1.2c0.1,0.5,0,1-0.1,1.4s-0.3,0.8-0.5,1.1s-0.5,0.6-0.8,0.9
			C-202.8,433.2-203,433.4-203.3,433.6z"/>
		<path id="XMLID_8_" class="st2" d="M-190.5,446.5c-0.3,0.2-0.7,0.5-1,0.8c-0.4,0.3-0.8,0.5-1.2,0.8c-0.4,0.2-0.9,0.4-1.4,0.5
			s-1,0.1-1.6,0c-0.4-0.1-0.8-0.2-1.1-0.4c-0.3-0.2-0.7-0.5-1-0.8s-0.5-0.8-0.6-1.3c-0.1-0.6-0.1-1-0.1-1.4c0.2-0.9,0.4-1.8,0.7-2.8
			s0.7-2,1.1-2.9c0.8-1.6,1.7-3,2.9-4.2s2.6-2,4.2-2.4c0.5-0.1,1.1-0.2,1.7-0.1c0.6,0.1,1.1,0.3,1.6,0.6c0.4,0.3,0.8,0.7,1,1.2
			s0.3,1,0.2,1.5c-0.1,0.2-0.1,0.4-0.2,0.6c-0.1,0.2-0.2,0.4-0.3,0.5s-0.2,0.2-0.3,0.2s-0.2-0.1-0.3-0.3c0-0.1-0.1-0.2-0.1-0.4
			c-0.1-0.2-0.1-0.4-0.2-0.6c-0.1-0.2-0.3-0.4-0.4-0.5c-0.2-0.2-0.4-0.2-0.7-0.2c-0.7,0-1.4,0.4-2.2,1.2s-1.6,1.7-2.4,2.8
			c-0.8,1.1-1.4,2.2-2,3.2c-0.5,1.1-0.9,1.9-1,2.4c-0.2,0.9-0.2,1.4,0.1,1.4c0.2,0.1,0.6-0.1,1.1-0.6c0.5-0.4,1.1-1,1.7-1.8
			c0.7-0.8,1.3-1.5,1.9-2.2c0.6-0.7,1.1-1.4,1.5-2s0.7-0.9,0.7-0.9c0.4-0.3,0.9-0.5,1.3-0.5c0.4,0,0.8,0.2,1.2,0.5
			c0.3,0.3,0.5,0.7,0.7,1.1c0.1,0.4,0.1,0.9-0.1,1.3c-0.2,0.5-0.6,1.2-1,2s-0.6,1.4-0.7,2c-0.1,0.9,0,1.5,0.3,1.7
			c0.3,0.3,0.9,0.3,1.7-0.1c0.7-0.3,1.3-0.8,2.1-1.5c0.7-0.7,1.4-1.4,2.1-2.2c0.7-0.8,1.4-1.5,2-2.3c0.6-0.7,1.1-1.3,1.5-1.6
			c0.1-0.1,0.2-0.2,0.4-0.3s0.3-0.1,0.4-0.1c0.2,0.1,0.3,0.2,0.3,0.3s0,0.2,0,0.4c-0.4,1.1-1,2.2-1.6,3.2c-0.6,1.1-1.3,2-2.1,3
			c-0.8,0.9-1.6,1.7-2.6,2.4c-0.9,0.7-2,1.3-3.1,1.7c-0.7,0.2-1.3,0.3-1.9,0.2c-0.5-0.1-1-0.3-1.5-0.6c-0.4-0.3-0.8-0.7-1.1-1.2
			C-190.2,447.6-190.4,447.1-190.5,446.5z"/>
		<path id="XMLID_10_" class="st2" d="M-174.8,444.6c0.2,0.2,0.6,0.1,1.2-0.2c0.6-0.3,1.2-0.7,1.9-1.3c0.7-0.6,1.4-1.1,2.1-1.6
			c0.7-0.6,1.3-1,1.9-1.3c0.2-0.1,0.5-0.3,1-0.5s0.9-0.4,1.4-0.5s1-0.1,1.4-0.1c0.4,0.1,0.7,0.3,0.7,0.7c0.1,0.6,0.1,1.2,0.1,1.9
			c0,0.6,0.1,1.3,0.1,2v0.5c0.7-0.5,1.4-1,2.1-1.5s1.4-0.9,2.1-1.3c0.8-0.4,1.6-0.9,2.3-1.3s1.5-0.8,2.3-1.1l0.1,0.1v0.1
			c-0.1,0.1-0.1,0.1-0.1,0.2c0,0-0.1,0.1-0.1,0.2c-0.6,0.7-1.2,1.3-1.8,1.9s-1.2,1.1-1.8,1.7c-0.7,0.7-1.4,1.3-2,1.9
			c-0.6,0.5-1.3,1.1-2.1,1.8c-0.5,0.5-0.9,1.1-1.2,1.6c-0.2,0.5-0.4,1.2-0.6,1.9c-0.7,2.2-1.4,4.6-2.1,7.1s-1.6,5-2.6,7.4
			s-2.3,4.6-3.7,6.6c-1.5,2-3.2,3.5-5.3,4.6c-0.5,0.1-1,0.1-1.5,0s-1-0.3-1.4-0.7c-0.7-0.6-1.2-1.4-1.4-2.2
			c-0.2-0.9-0.3-1.8-0.3-2.7c0.1-0.9,0.2-1.9,0.5-2.8s0.6-1.7,0.9-2.4c0.9-2,1.8-3.8,3-5.5c1.1-1.7,2.3-3.4,3.6-4.9s2.6-3,4.1-4.4
			c1.4-1.4,2.9-2.7,4.4-4c0.1-0.1,0.3-0.4,0.4-0.9c0.1-0.5,0.2-0.9,0.3-1.3s0-0.8,0-1c-0.1-0.3-0.2-0.2-0.5,0
			c-0.7,0.5-1.4,1.1-2.2,1.6s-1.6,1-2.4,1.4c-0.8,0.4-1.7,0.7-2.5,1c-0.9,0.2-1.7,0.3-2.6,0.2c-0.8-0.1-1.4-0.4-1.9-0.8
			c-0.4-0.4-0.8-0.9-1-1.5s-0.3-1.2-0.3-1.9c0-0.7,0.1-1.3,0.3-1.9c0.3-1.3,0.8-2.4,1.6-3.4s1.8-1.7,3-2.1c2-0.6,3.8-0.5,5.7,0.2
			c0.4,0.2,0.7,0.3,1,0.5s0.5,0.4,0.6,0.8c0.3,0.8,0.1,1.1-0.8,1c-0.4-0.1-0.8-0.1-1.2-0.2c-0.4,0-0.8-0.1-1.1-0.1
			c-1.1,0-2,0.3-2.7,0.8s-1.3,1.2-1.7,1.9c-0.4,0.7-0.7,1.4-0.8,2.2C-174.9,443.6-174.9,444.2-174.8,444.6z M-168.2,451.3
			c-1.1,1.2-2.1,2.3-3.2,3.5c-1.1,1.2-2.1,2.4-3,3.6s-1.8,2.5-2.6,3.9s-1.4,2.8-2,4.3c-0.3,1-0.5,1.9-0.6,2.9
			c-0.1,0.9-0.1,1.8,0.2,2.8c0.7-0.3,1.4-0.9,2.1-1.8s1.3-1.8,1.9-2.8c0.6-1,1.1-2,1.6-3s0.9-1.8,1.2-2.4c0.2-0.5,0.6-1.2,1.1-2.3
			c0.5-1,1-2.1,1.5-3.3c0.5-1.1,0.9-2.2,1.3-3.2C-168.4,452.5-168.2,451.7-168.2,451.3z"/>
	</g>
</g>
</svg>
