<svg xmlns="http://www.w3.org/2000/svg" xmlns:xlink="http://www.w3.org/1999/xlink" preserveAspectRatio="xMidYMid" width="111" height="111" viewBox="0 0 111 111">
  <defs>
    <style>
      .cls-1 {
        fill: #4d9260;
      }

      .cls-2 {
        fill: #6cc183;
      }

      .cls-2, .cls-3 {
        fill-rule: evenodd;
      }

      .cls-3 {
        fill: #fff;
      }
    </style>
  </defs>
  <g>
    <rect y="1" width="49" height="4" class="cls-1"/>
    <rect x="106" y="62" width="4" height="49" class="cls-1"/>
    <path d="M49.000,-0.001 L110.948,61.411 L111.000,110.999 L-0.000,-0.001 L49.000,-0.001 Z" class="cls-2"/>
    <path d="M81.234,51.934 C81.026,52.133 80.779,52.219 80.493,52.190 C80.207,52.162 79.956,52.036 79.742,51.813 L77.437,49.412 L75.579,51.197 L77.674,53.378 C77.866,53.578 77.972,53.827 77.992,54.126 C78.013,54.424 77.919,54.673 77.711,54.872 C77.504,55.072 77.255,55.163 76.965,55.146 C76.674,55.129 76.422,55.008 76.208,54.785 L74.113,52.604 L72.232,54.411 L74.648,56.926 C74.855,57.142 74.967,57.397 74.984,57.691 C75.000,57.986 74.908,58.229 74.708,58.421 C74.501,58.621 74.248,58.712 73.950,58.695 C73.653,58.677 73.397,58.557 73.183,58.334 L70.246,55.276 C69.972,54.991 69.792,54.684 69.704,54.354 C69.617,54.024 69.727,53.711 70.035,53.415 L76.532,47.176 C76.732,46.984 77.000,46.889 77.335,46.893 C77.671,46.895 77.961,47.024 78.205,47.278 L81.208,50.405 C81.422,50.629 81.530,50.891 81.531,51.193 C81.533,51.495 81.434,51.742 81.234,51.934 ZM74.575,46.028 C74.289,45.999 74.039,45.873 73.824,45.650 L71.519,43.250 L69.661,45.034 L71.756,47.215 C71.948,47.415 72.054,47.664 72.075,47.963 C72.095,48.261 72.001,48.510 71.793,48.710 C71.586,48.909 71.337,49.000 71.047,48.983 C70.756,48.966 70.504,48.846 70.290,48.623 L68.196,46.442 L66.315,48.248 L68.730,50.764 C68.937,50.979 69.049,51.234 69.066,51.529 C69.082,51.823 68.991,52.067 68.791,52.259 C68.583,52.458 68.330,52.549 68.033,52.532 C67.735,52.515 67.479,52.394 67.265,52.171 L64.328,49.113 C64.055,48.828 63.874,48.521 63.787,48.191 C63.699,47.861 63.809,47.548 64.117,47.253 L70.614,41.014 C70.814,40.822 71.082,40.727 71.418,40.730 C71.753,40.733 72.043,40.861 72.287,41.115 L75.290,44.243 C75.504,44.466 75.612,44.728 75.614,45.030 C75.615,45.332 75.516,45.579 75.316,45.771 C75.108,45.971 74.861,46.056 74.575,46.028 ZM67.690,41.226 C67.113,41.780 66.503,42.092 65.861,42.162 C65.218,42.232 64.576,42.095 63.934,41.750 L63.075,45.614 C63.018,45.846 62.912,46.025 62.759,46.150 C62.605,46.276 62.434,46.351 62.245,46.378 C62.056,46.404 61.867,46.389 61.680,46.332 C61.492,46.276 61.336,46.182 61.210,46.051 C60.922,45.751 60.823,45.410 60.914,45.027 L62.088,40.173 L61.334,39.388 L58.691,41.926 C58.491,42.119 58.237,42.208 57.928,42.194 C57.619,42.180 57.357,42.061 57.143,41.838 C56.936,41.623 56.832,41.364 56.830,41.063 C56.829,40.761 56.932,40.510 57.140,40.311 L63.787,33.927 C64.010,33.713 64.288,33.613 64.619,33.627 C64.951,33.642 65.231,33.768 65.460,34.006 L67.389,36.015 C67.913,36.561 68.280,37.085 68.488,37.587 C68.697,38.089 68.791,38.561 68.771,39.002 C68.751,39.443 68.640,39.851 68.441,40.228 C68.240,40.605 67.990,40.938 67.690,41.226 ZM66.413,38.105 C66.308,37.880 66.130,37.637 65.879,37.376 L64.704,36.152 L62.788,37.992 L64.029,39.285 C64.413,39.685 64.786,39.911 65.147,39.964 C65.508,40.016 65.839,39.898 66.139,39.610 C66.262,39.492 66.365,39.360 66.447,39.215 C66.529,39.069 66.570,38.904 66.570,38.719 C66.570,38.534 66.517,38.330 66.413,38.105 ZM62.075,32.987 C61.789,32.959 61.539,32.833 61.324,32.610 L59.019,30.210 L57.150,32.005 L59.244,34.186 C59.436,34.386 59.542,34.635 59.563,34.934 C59.583,35.232 59.490,35.481 59.282,35.681 C59.074,35.880 58.825,35.971 58.535,35.954 C58.245,35.937 57.993,35.817 57.779,35.594 L55.684,33.412 L52.972,36.017 C52.772,36.209 52.523,36.296 52.226,36.279 C51.928,36.261 51.672,36.141 51.458,35.918 C51.243,35.695 51.134,35.434 51.128,35.136 C51.123,34.838 51.220,34.593 51.421,34.401 L58.114,27.973 C58.314,27.781 58.582,27.687 58.918,27.690 C59.253,27.693 59.543,27.821 59.787,28.075 L62.790,31.203 C63.004,31.426 63.112,31.688 63.114,31.990 C63.115,32.292 63.016,32.539 62.816,32.731 C62.608,32.930 62.361,33.016 62.075,32.987 Z" class="cls-3"/>
  </g>
</svg>
